<svg xmlns="http://www.w3.org/2000/svg" viewBox="0 0 163 50"><defs><style>.cls-1,.cls-2{fill:none;}.cls-2{stroke:#244c5b;}.cls-3{isolation:isolate;}.cls-4{fill:#fff;}</style></defs><title>Asset 1</title><g id="Layer_2" data-name="Layer 2"><g id="Layer_1-2" data-name="Layer 1"><g id="Group_149" data-name="Group 149"><g id="Rectangle_149" data-name="Rectangle 149"><rect class="cls-1" width="163" height="50" rx="5" ry="5"/><rect class="cls-2" x="0.5" y="0.5" width="162" height="49" rx="4.5" ry="4.5"/></g><g class="cls-3"><path class="cls-4" d="M62.75,17.36a3.56,3.56,0,0,1-1,2.7,3.94,3.94,0,0,1-2.83.94h-2V13.86h2.21a3.65,3.65,0,0,1,2.65.92A3.43,3.43,0,0,1,62.75,17.36Zm-1.23,0q0-2.56-2.4-2.56h-1V20h.83A2.3,2.3,0,0,0,61.52,17.4Z"/><path class="cls-4" d="M68.95,18.29a3,3,0,0,1-.68,2.07,2.43,2.43,0,0,1-1.89.74A2.59,2.59,0,0,1,65,20.76a2.25,2.25,0,0,1-.89-1,3.34,3.34,0,0,1-.31-1.48,2.93,2.93,0,0,1,.67-2.05,2.44,2.44,0,0,1,1.9-.74,2.38,2.38,0,0,1,1.86.75A2.92,2.92,0,0,1,68.95,18.29Zm-3.93,0q0,1.87,1.38,1.87t1.37-1.87q0-1.85-1.38-1.85a1.17,1.17,0,0,0-1,.48A2.44,2.44,0,0,0,65,18.29Z"/><path class="cls-4" d="M74.7,21,74,18.48q-.13-.4-.46-1.86h0q-.28,1.32-.45,1.87L72.33,21H71.06l-1.51-5.4h1.17l.69,2.66q.23,1,.33,1.69h0c0-.24.08-.51.15-.82s.12-.54.17-.69l.82-2.84h1.26l.8,2.84q.07.24.18.73a5.66,5.66,0,0,1,.13.77h0a15,15,0,0,1,.34-1.68l.7-2.66h1.15L76,21Z"/><path class="cls-4" d="M83.19,21H82V17.68a1.45,1.45,0,0,0-.25-.93,1,1,0,0,0-.8-.31,1.27,1.27,0,0,0-1.06.43,2.37,2.37,0,0,0-.34,1.44V21H78.44V15.6h.9l.16.71h.06a1.6,1.6,0,0,1,.69-.6,2.33,2.33,0,0,1,1-.21,1.73,1.73,0,0,1,1.94,2Z"/><path class="cls-4" d="M85.93,21H84.78V13.4h1.15Z"/><path class="cls-4" d="M92.36,18.29a3,3,0,0,1-.68,2.07,2.43,2.43,0,0,1-1.89.74,2.59,2.59,0,0,1-1.34-.34,2.25,2.25,0,0,1-.89-1,3.33,3.33,0,0,1-.31-1.48,2.93,2.93,0,0,1,.67-2.05,2.44,2.44,0,0,1,1.9-.74,2.38,2.38,0,0,1,1.86.75A2.92,2.92,0,0,1,92.36,18.29Zm-3.93,0q0,1.87,1.38,1.87t1.37-1.87q0-1.85-1.38-1.85a1.17,1.17,0,0,0-1,.48A2.44,2.44,0,0,0,88.43,18.29Z"/><path class="cls-4" d="M97.06,21l-.23-.75h0a2.21,2.21,0,0,1-.79.67,2.5,2.5,0,0,1-1,.18,1.72,1.72,0,0,1-1.24-.43,1.61,1.61,0,0,1-.45-1.22,1.43,1.43,0,0,1,.62-1.26,3.58,3.58,0,0,1,1.89-.46l.93,0v-.29a1.09,1.09,0,0,0-.24-.77,1,1,0,0,0-.75-.26,2.6,2.6,0,0,0-.8.12,6,6,0,0,0-.73.29L93.85,16a4,4,0,0,1,1-.35,4.46,4.46,0,0,1,1-.12,2.34,2.34,0,0,1,1.56.45,1.76,1.76,0,0,1,.52,1.41V21Zm-1.71-.78a1.42,1.42,0,0,0,1-.35,1.26,1.26,0,0,0,.38-1v-.47l-.69,0a2.36,2.36,0,0,0-1.18.27.82.82,0,0,0-.37.74.72.72,0,0,0,.21.56A.93.93,0,0,0,95.35,20.22Z"/><path class="cls-4" d="M101.3,21.1a1.88,1.88,0,0,1-1.58-.73,3.29,3.29,0,0,1-.57-2.06,3.3,3.3,0,0,1,.57-2.07,1.9,1.9,0,0,1,1.59-.74,1.86,1.86,0,0,1,1.62.79H103a7,7,0,0,1-.08-.92v-2h1.15V21h-.9l-.2-.71h-.05A1.84,1.84,0,0,1,101.3,21.1Zm.31-.93a1.25,1.25,0,0,0,1-.4,2.09,2.09,0,0,0,.33-1.29v-.16a2.42,2.42,0,0,0-.33-1.45,1.23,1.23,0,0,0-1-.43,1.06,1.06,0,0,0-.93.49,2.51,2.51,0,0,0-.33,1.4,2.46,2.46,0,0,0,.32,1.37A1.07,1.07,0,0,0,101.61,20.17Z"/><path class="cls-4" d="M108.24,14.17a.63.63,0,0,1,.17-.47.65.65,0,0,1,.48-.17.64.64,0,0,1,.47.17.63.63,0,0,1,.17.47.62.62,0,0,1-.17.46.64.64,0,0,1-.47.17.65.65,0,0,1-.48-.17A.62.62,0,0,1,108.24,14.17ZM109.46,21h-1.15V15.6h1.15Z"/><path class="cls-4" d="M113.11,20.17a2.79,2.79,0,0,0,.84-.13v.86a2.29,2.29,0,0,1-.49.14,3.34,3.34,0,0,1-.62.06q-1.63,0-1.63-1.72V16.47h-.74V16l.79-.42.39-1.14h.71v1.2h1.54v.87h-1.54v2.89a.82.82,0,0,0,.21.61A.76.76,0,0,0,113.11,20.17Z"/><path class="cls-4" d="M120.34,16.47H119V21h-1.15V16.47H117v-.54l.89-.35v-.35a2,2,0,0,1,.45-1.42,1.83,1.83,0,0,1,1.37-.46,3.65,3.65,0,0,1,1.19.2l-.3.87a2.66,2.66,0,0,0-.81-.14.66.66,0,0,0-.57.24,1.22,1.22,0,0,0-.18.72v.35h1.32Z"/><path class="cls-4" d="M124,15.5a2.79,2.79,0,0,1,.57,0l-.11,1.07a2.17,2.17,0,0,0-.51-.06,1.47,1.47,0,0,0-1.12.45,1.63,1.63,0,0,0-.43,1.17V21h-1.15V15.6h.9l.15,1h.06a2.14,2.14,0,0,1,.7-.77A1.67,1.67,0,0,1,124,15.5Z"/><path class="cls-4" d="M130.36,18.29a3,3,0,0,1-.68,2.07,2.43,2.43,0,0,1-1.89.74,2.59,2.59,0,0,1-1.34-.34,2.25,2.25,0,0,1-.89-1,3.35,3.35,0,0,1-.31-1.48,2.93,2.93,0,0,1,.67-2.05,2.45,2.45,0,0,1,1.9-.74,2.38,2.38,0,0,1,1.86.75A2.92,2.92,0,0,1,130.36,18.29Zm-3.93,0q0,1.87,1.38,1.87t1.37-1.87q0-1.85-1.38-1.85a1.17,1.17,0,0,0-1,.48A2.43,2.43,0,0,0,126.42,18.29Z"/><path class="cls-4" d="M136.22,21h-1.15V17.67a1.51,1.51,0,0,0-.23-.93.87.87,0,0,0-.73-.3,1.12,1.12,0,0,0-1,.43,2.54,2.54,0,0,0-.31,1.44V21h-1.15V15.6h.9l.16.71h.06a1.5,1.5,0,0,1,.65-.6,2.11,2.11,0,0,1,.94-.21,1.64,1.64,0,0,1,1.65.85h.08a1.64,1.64,0,0,1,.67-.62,2.14,2.14,0,0,1,1-.22,1.82,1.82,0,0,1,1.41.49,2.17,2.17,0,0,1,.44,1.49V21h-1.15V17.67a1.5,1.5,0,0,0-.24-.93.87.87,0,0,0-.73-.3,1.14,1.14,0,0,0-1,.42,2.15,2.15,0,0,0-.31,1.28Z"/></g><g class="cls-3"><path class="cls-4" d="M62.45,37l-.86-2.38H58.31L57.48,37H56l3.21-8.6h1.52L63.93,37Zm-1.22-3.59-.8-2.33q-.09-.23-.24-.74T60,29.61a13.13,13.13,0,0,1-.46,1.58l-.77,2.23Z"/><path class="cls-4" d="M70.74,31a2.5,2.5,0,0,1-.88,2.06,3.87,3.87,0,0,1-2.5.71h-.89V37h-1.4V28.43h2.47a3.73,3.73,0,0,1,2.41.66A2.36,2.36,0,0,1,70.74,31Zm-4.27,1.59h.74a2.67,2.67,0,0,0,1.58-.37,1.36,1.36,0,0,0,.5-1.17,1.33,1.33,0,0,0-.45-1.1,2.23,2.23,0,0,0-1.41-.36h-1Z"/><path class="cls-4" d="M78.12,31a2.5,2.5,0,0,1-.88,2.06,3.87,3.87,0,0,1-2.5.71h-.89V37h-1.4V28.43h2.47a3.73,3.73,0,0,1,2.41.66A2.36,2.36,0,0,1,78.12,31Zm-4.27,1.59h.74a2.67,2.67,0,0,0,1.58-.37,1.36,1.36,0,0,0,.5-1.17,1.33,1.33,0,0,0-.45-1.1,2.23,2.23,0,0,0-1.41-.36h-1Z"/><path class="cls-4" d="M87.89,34.67a2.16,2.16,0,0,1-.83,1.79,3.6,3.6,0,0,1-2.28.65,5.44,5.44,0,0,1-2.38-.45V35.34a6.47,6.47,0,0,0,1.25.43,5.28,5.28,0,0,0,1.23.16,2,2,0,0,0,1.23-.32,1,1,0,0,0,.4-.85,1.06,1.06,0,0,0-.36-.81,5.47,5.47,0,0,0-1.5-.79A4,4,0,0,1,83,32.08a2.29,2.29,0,0,1-.48-1.46,2.05,2.05,0,0,1,.76-1.69,3.16,3.16,0,0,1,2-.62,6,6,0,0,1,2.45.54L87.31,30a5.35,5.35,0,0,0-2-.48,1.56,1.56,0,0,0-1,.3,1,1,0,0,0-.35.78,1.1,1.1,0,0,0,.14.57,1.44,1.44,0,0,0,.46.45,7.83,7.83,0,0,0,1.16.56A6.35,6.35,0,0,1,87,32.9a2.15,2.15,0,0,1,.64.77A2.31,2.31,0,0,1,87.89,34.67Z"/><path class="cls-4" d="M92.5,37H91.1V29.63H88.58v-1.2H95v1.2H92.5Z"/><path class="cls-4" d="M103.94,32.71a4.69,4.69,0,0,1-1,3.25A4.4,4.4,0,0,1,97,36a4.72,4.72,0,0,1-1-3.27,4.64,4.64,0,0,1,1-3.26,3.85,3.85,0,0,1,3-1.14,3.78,3.78,0,0,1,3,1.15A4.68,4.68,0,0,1,103.94,32.71Zm-6.54,0A3.84,3.84,0,0,0,98,35.1a2.6,2.6,0,0,0,3.78,0,3.85,3.85,0,0,0,.64-2.41,3.86,3.86,0,0,0-.63-2.39,2.23,2.23,0,0,0-1.88-.81,2.27,2.27,0,0,0-1.9.81A3.8,3.8,0,0,0,97.4,32.71Z"/><path class="cls-4" d="M107.18,33.58V37h-1.4V28.43h2.42a4,4,0,0,1,2.46.62,2.23,2.23,0,0,1,.8,1.88,2.34,2.34,0,0,1-1.66,2.28L112.21,37h-1.59l-2.05-3.42Zm0-1.16h1a2.22,2.22,0,0,0,1.42-.36A1.32,1.32,0,0,0,110,31a1.16,1.16,0,0,0-.47-1,2.6,2.6,0,0,0-1.43-.32h-.93Z"/><path class="cls-4" d="M118.3,37h-4.85V28.43h4.85v1.18h-3.45v2.33h3.23v1.17h-3.23v2.69h3.45Z"/></g><g id="apple-logotype"><path id="Apple" class="cls-4" d="M28.56,16.65a4.62,4.62,0,0,1,3-1.57,4.57,4.57,0,0,1-1.07,3.31,3.81,3.81,0,0,1-3.06,1.46A4.34,4.34,0,0,1,28.56,16.65Zm5.9,16.56c-.86,1.26-1.75,2.52-3.16,2.54s-1.83-.82-3.4-.82-2.07.8-3.38.85-2.39-1.36-3.26-2.62C19.5,30.59,18.14,25.9,20,22.73a5,5,0,0,1,4.26-2.6c1.33,0,2.59.9,3.4.9s2.34-1.11,3.95-.95a4.81,4.81,0,0,1,3.77,2,4.69,4.69,0,0,0-2.22,3.94,4.56,4.56,0,0,0,2.77,4.19,11.44,11.44,0,0,1-1.43,2.94Z"/></g></g></g></g></svg>