<svg xmlns="http://www.w3.org/2000/svg" viewBox="0 0 163 50"><defs><style>.cls-1,.cls-2{fill:none;}.cls-2{stroke:#244c5b;}.cls-3{fill:#fff;}.cls-4{isolation:isolate;}</style></defs><title>Asset 2</title><g id="Layer_2" data-name="Layer 2"><g id="Layer_1-2" data-name="Layer 1"><g id="Rectangle_148" data-name="Rectangle 148"><rect class="cls-1" width="163" height="50" rx="5" ry="5"/><rect class="cls-2" x="0.5" y="0.5" width="162" height="49" rx="4.5" ry="4.5"/></g><path id="play-store" class="cls-3" d="M37.23,22.78,22.42,14.31a2.38,2.38,0,0,0-3.56,2.07V33.32a2.38,2.38,0,0,0,3.57,2.07l14.81-8.47a2.39,2.39,0,0,0,0-4.14Zm-6.42-2-2,2.83-4.86-6.77ZM21.15,34.25a.93.93,0,0,1-.38-.12.94.94,0,0,1-.47-.81V16.38a.93.93,0,0,1,.84-.93l6.75,9.4Zm2.77-1.38,4.86-6.77,2,2.83Zm12.6-7.2L32.08,28.2l-2.41-3.35,2.41-3.35L36.51,24a.94.94,0,0,1,0,1.63Z"/><g class="cls-4"><path class="cls-3" d="M62.75,17.36a3.56,3.56,0,0,1-1,2.7,3.94,3.94,0,0,1-2.83.94h-2V13.86h2.21a3.65,3.65,0,0,1,2.65.92A3.43,3.43,0,0,1,62.75,17.36Zm-1.23,0q0-2.56-2.4-2.56h-1V20h.83A2.3,2.3,0,0,0,61.52,17.4Z"/><path class="cls-3" d="M68.95,18.29a3,3,0,0,1-.68,2.07,2.43,2.43,0,0,1-1.89.74A2.59,2.59,0,0,1,65,20.76a2.25,2.25,0,0,1-.89-1,3.34,3.34,0,0,1-.31-1.48,2.93,2.93,0,0,1,.67-2.05,2.44,2.44,0,0,1,1.9-.74,2.38,2.38,0,0,1,1.86.75A2.92,2.92,0,0,1,68.95,18.29Zm-3.93,0q0,1.87,1.38,1.87t1.37-1.87q0-1.85-1.38-1.85a1.17,1.17,0,0,0-1,.48A2.44,2.44,0,0,0,65,18.29Z"/><path class="cls-3" d="M74.7,21,74,18.48q-.13-.4-.46-1.86h0q-.28,1.32-.45,1.87L72.33,21H71.06l-1.51-5.4h1.17l.69,2.66q.23,1,.33,1.69h0c0-.24.08-.51.15-.82s.12-.54.17-.69l.82-2.84h1.26l.8,2.84q.07.24.18.73a5.66,5.66,0,0,1,.13.77h0a15,15,0,0,1,.34-1.68l.7-2.66h1.15L76,21Z"/><path class="cls-3" d="M83.19,21H82V17.68a1.45,1.45,0,0,0-.25-.93,1,1,0,0,0-.8-.31,1.27,1.27,0,0,0-1.06.43,2.37,2.37,0,0,0-.34,1.44V21H78.44V15.6h.9l.16.71h.06a1.6,1.6,0,0,1,.69-.6,2.33,2.33,0,0,1,1-.21,1.73,1.73,0,0,1,1.94,2Z"/><path class="cls-3" d="M85.93,21H84.78V13.4h1.15Z"/><path class="cls-3" d="M92.36,18.29a3,3,0,0,1-.68,2.07,2.43,2.43,0,0,1-1.89.74,2.59,2.59,0,0,1-1.34-.34,2.25,2.25,0,0,1-.89-1,3.33,3.33,0,0,1-.31-1.48,2.93,2.93,0,0,1,.67-2.05,2.44,2.44,0,0,1,1.9-.74,2.38,2.38,0,0,1,1.86.75A2.92,2.92,0,0,1,92.36,18.29Zm-3.93,0q0,1.87,1.38,1.87t1.37-1.87q0-1.85-1.38-1.85a1.17,1.17,0,0,0-1,.48A2.44,2.44,0,0,0,88.43,18.29Z"/><path class="cls-3" d="M97.06,21l-.23-.75h0a2.21,2.21,0,0,1-.79.67,2.5,2.5,0,0,1-1,.18,1.72,1.72,0,0,1-1.24-.43,1.61,1.61,0,0,1-.45-1.22,1.43,1.43,0,0,1,.62-1.26,3.58,3.58,0,0,1,1.89-.46l.93,0v-.29a1.09,1.09,0,0,0-.24-.77,1,1,0,0,0-.75-.26,2.6,2.6,0,0,0-.8.12,6,6,0,0,0-.73.29L93.85,16a4,4,0,0,1,1-.35,4.46,4.46,0,0,1,1-.12,2.34,2.34,0,0,1,1.56.45,1.76,1.76,0,0,1,.52,1.41V21Zm-1.71-.78a1.42,1.42,0,0,0,1-.35,1.26,1.26,0,0,0,.38-1v-.47l-.69,0a2.36,2.36,0,0,0-1.18.27.82.82,0,0,0-.37.74.72.72,0,0,0,.21.56A.93.93,0,0,0,95.35,20.22Z"/><path class="cls-3" d="M101.3,21.1a1.88,1.88,0,0,1-1.58-.73,3.29,3.29,0,0,1-.57-2.06,3.3,3.3,0,0,1,.57-2.07,1.9,1.9,0,0,1,1.59-.74,1.86,1.86,0,0,1,1.62.79H103a7,7,0,0,1-.08-.92v-2h1.15V21h-.9l-.2-.71h-.05A1.84,1.84,0,0,1,101.3,21.1Zm.31-.93a1.25,1.25,0,0,0,1-.4,2.09,2.09,0,0,0,.33-1.29v-.16a2.42,2.42,0,0,0-.33-1.45,1.23,1.23,0,0,0-1-.43,1.06,1.06,0,0,0-.93.49,2.51,2.51,0,0,0-.33,1.4,2.46,2.46,0,0,0,.32,1.37A1.07,1.07,0,0,0,101.61,20.17Z"/><path class="cls-3" d="M108.24,14.17a.63.63,0,0,1,.17-.47.65.65,0,0,1,.48-.17.64.64,0,0,1,.47.17.63.63,0,0,1,.17.47.62.62,0,0,1-.17.46.64.64,0,0,1-.47.17.65.65,0,0,1-.48-.17A.62.62,0,0,1,108.24,14.17ZM109.46,21h-1.15V15.6h1.15Z"/><path class="cls-3" d="M113.11,20.17a2.79,2.79,0,0,0,.84-.13v.86a2.29,2.29,0,0,1-.49.14,3.34,3.34,0,0,1-.62.06q-1.63,0-1.63-1.72V16.47h-.74V16l.79-.42.39-1.14h.71v1.2h1.54v.87h-1.54v2.89a.82.82,0,0,0,.21.61A.76.76,0,0,0,113.11,20.17Z"/><path class="cls-3" d="M120.34,16.47H119V21h-1.15V16.47H117v-.54l.89-.35v-.35a2,2,0,0,1,.45-1.42,1.83,1.83,0,0,1,1.37-.46,3.65,3.65,0,0,1,1.19.2l-.3.87a2.66,2.66,0,0,0-.81-.14.66.66,0,0,0-.57.24,1.22,1.22,0,0,0-.18.72v.35h1.32Z"/><path class="cls-3" d="M124,15.5a2.79,2.79,0,0,1,.57,0l-.11,1.07a2.17,2.17,0,0,0-.51-.06,1.47,1.47,0,0,0-1.12.45,1.63,1.63,0,0,0-.43,1.17V21h-1.15V15.6h.9l.15,1h.06a2.14,2.14,0,0,1,.7-.77A1.67,1.67,0,0,1,124,15.5Z"/><path class="cls-3" d="M130.36,18.29a3,3,0,0,1-.68,2.07,2.43,2.43,0,0,1-1.89.74,2.59,2.59,0,0,1-1.34-.34,2.25,2.25,0,0,1-.89-1,3.35,3.35,0,0,1-.31-1.48,2.93,2.93,0,0,1,.67-2.05,2.45,2.45,0,0,1,1.9-.74,2.38,2.38,0,0,1,1.86.75A2.92,2.92,0,0,1,130.36,18.29Zm-3.93,0q0,1.87,1.38,1.87t1.37-1.87q0-1.85-1.38-1.85a1.17,1.17,0,0,0-1,.48A2.43,2.43,0,0,0,126.42,18.29Z"/><path class="cls-3" d="M136.22,21h-1.15V17.67a1.51,1.51,0,0,0-.23-.93.87.87,0,0,0-.73-.3,1.12,1.12,0,0,0-1,.43,2.54,2.54,0,0,0-.31,1.44V21h-1.15V15.6h.9l.16.71h.06a1.5,1.5,0,0,1,.65-.6,2.11,2.11,0,0,1,.94-.21,1.64,1.64,0,0,1,1.65.85h.08a1.64,1.64,0,0,1,.67-.62,2.14,2.14,0,0,1,1-.22,1.82,1.82,0,0,1,1.41.49,2.17,2.17,0,0,1,.44,1.49V21h-1.15V17.67a1.5,1.5,0,0,0-.24-.93.87.87,0,0,0-.73-.3,1.14,1.14,0,0,0-1,.42,2.15,2.15,0,0,0-.31,1.28Z"/></g><g class="cls-4"><path class="cls-3" d="M60.63,32.35h3.15v4.3A9.12,9.12,0,0,1,62.3,37a10.51,10.51,0,0,1-1.54.11,3.86,3.86,0,0,1-3-1.15,4.64,4.64,0,0,1-1.05-3.25,4.33,4.33,0,0,1,1.19-3.24,4.47,4.47,0,0,1,3.28-1.17,6.38,6.38,0,0,1,2.54.52L63.22,30a5,5,0,0,0-2.09-.48,2.81,2.81,0,0,0-2.17.86,3.33,3.33,0,0,0-.8,2.36,3.52,3.52,0,0,0,.72,2.39,2.6,2.6,0,0,0,2.07.82,6.79,6.79,0,0,0,1.45-.17V33.55H60.63Z"/><path class="cls-3" d="M73.45,32.71a4.69,4.69,0,0,1-1,3.25,4.4,4.4,0,0,1-5.94,0,4.72,4.72,0,0,1-1-3.27,4.64,4.64,0,0,1,1-3.26,3.85,3.85,0,0,1,3-1.14,3.78,3.78,0,0,1,3,1.15A4.68,4.68,0,0,1,73.45,32.71Zm-6.54,0a3.84,3.84,0,0,0,.64,2.4,2.6,2.6,0,0,0,3.78,0A3.85,3.85,0,0,0,72,32.71a3.86,3.86,0,0,0-.63-2.39,2.23,2.23,0,0,0-1.88-.81,2.27,2.27,0,0,0-1.9.81A3.8,3.8,0,0,0,66.91,32.71Z"/><path class="cls-3" d="M82.89,32.71a4.69,4.69,0,0,1-1,3.25,4.4,4.4,0,0,1-5.94,0,4.72,4.72,0,0,1-1-3.27,4.64,4.64,0,0,1,1-3.26,3.85,3.85,0,0,1,3-1.14,3.78,3.78,0,0,1,3,1.15A4.68,4.68,0,0,1,82.89,32.71Zm-6.54,0A3.84,3.84,0,0,0,77,35.1a2.6,2.6,0,0,0,3.78,0,3.85,3.85,0,0,0,.64-2.41,3.86,3.86,0,0,0-.63-2.39,2.23,2.23,0,0,0-1.88-.81,2.27,2.27,0,0,0-1.9.81A3.8,3.8,0,0,0,76.36,32.71Z"/><path class="cls-3" d="M88.24,32.35h3.15v4.3a9.12,9.12,0,0,1-1.49.36,10.51,10.51,0,0,1-1.54.11,3.86,3.86,0,0,1-3-1.15,4.64,4.64,0,0,1-1.05-3.25,4.33,4.33,0,0,1,1.19-3.24,4.47,4.47,0,0,1,3.28-1.17,6.38,6.38,0,0,1,2.54.52L90.83,30a5,5,0,0,0-2.09-.48,2.81,2.81,0,0,0-2.17.86,3.33,3.33,0,0,0-.8,2.36,3.52,3.52,0,0,0,.72,2.39,2.6,2.6,0,0,0,2.07.82A6.79,6.79,0,0,0,90,35.76V33.55H88.24Z"/><path class="cls-3" d="M93.45,37V28.43h1.4V35.8h3.63V37Z"/><path class="cls-3" d="M104.8,37H100V28.43h4.85v1.18h-3.45v2.33h3.23v1.17h-3.23v2.69h3.45Z"/><path class="cls-3" d="M115.44,31a2.5,2.5,0,0,1-.88,2.06,3.87,3.87,0,0,1-2.5.71h-.89V37h-1.4V28.43h2.47a3.73,3.73,0,0,1,2.41.66A2.36,2.36,0,0,1,115.44,31Zm-4.27,1.59h.74a2.67,2.67,0,0,0,1.58-.37,1.36,1.36,0,0,0,.5-1.17,1.33,1.33,0,0,0-.45-1.1,2.23,2.23,0,0,0-1.41-.36h-1Z"/><path class="cls-3" d="M117.15,37V28.43h1.4V35.8h3.63V37Z"/><path class="cls-3" d="M129,37l-.86-2.38h-3.28L124,37h-1.48l3.21-8.6h1.52l3.21,8.6Zm-1.22-3.59-.8-2.33q-.09-.23-.24-.74t-.21-.74a13.13,13.13,0,0,1-.46,1.58l-.77,2.23Z"/><path class="cls-3" d="M134,32.34l2-3.91h1.52l-2.85,5.24V37H133.3V33.72l-2.84-5.29H132Z"/></g></g></g></svg>