<svg xmlns="http://www.w3.org/2000/svg" width="62px" height="98px" viewBox="-15228.159 -7993 59.791 88.66">
  <defs>
    <style>
      .cls-1 {
        fill: #dfdfdf;
      }

      .cls-2 {
        fill: #fff;
      }
    </style>
  </defs>
  <g id="Layer_1" data-name="Layer 1" transform="translate(-15225.159 -7993)">
    <path id="Path_330" data-name="Path 330" class="cls-1" d="M59.237,60.745a9.7,9.7,0,0,1-4.614,7.907,9.8,9.8,0,0,1-4.908,1.482h-.577a16.956,16.956,0,0,1-3.668-.467,12.775,12.775,0,0,0,2.838-.577c1.73-.577,1.938-1.592,1.938-1.592a6.765,6.765,0,0,1-2.457-8.484,6.344,6.344,0,0,1,6.54-4.037A5.358,5.358,0,0,1,59.237,60.745Z" transform="translate(-19.24 -23.261)"/>
    <path id="Path_331" data-name="Path 331" class="cls-2" d="M48.5,49.3A28.069,28.069,0,0,1,28.642,57.3a27.106,27.106,0,0,1-5.767-.577A28.652,28.652,0,1,1,47.622,7.195a24.419,24.419,0,0,0-35.9,24.223.254.254,0,0,1,0,.046,18.548,18.548,0,0,0,18.167,17.1h.64A11.465,11.465,0,0,0,41.67,37.11a7.193,7.193,0,0,0-7.082-7.082,6.792,6.792,0,0,0-4.285,1.24l.415-.848a11.359,11.359,0,0,1,10.67-6.027c6.69.069,11.5,5.225,12.077,11.587A17.49,17.49,0,0,1,48.5,49.3Z" transform="translate(0.011 -0.006)"/>
    <path id="Path_332" data-name="Path 332" class="cls-1" d="M56.45,12.948a22.446,22.446,0,0,0-4.147-1.73h-.04a20.762,20.762,0,0,0-6.54-.969A22.769,22.769,0,0,0,23,32.995a20.388,20.388,0,0,1,3.351-5.542,10.5,10.5,0,0,1,4.389-3.114s2.532,4.948,6.828,4.718A20.526,20.526,0,0,0,53.8,19.332a32.925,32.925,0,0,0,2.647-6.384Z" transform="translate(-9.729 -4.341)"/>
    <path id="Path_333" data-name="Path 333" class="cls-2" d="M138.013,30.964c0,3.178-2.56,4.222-4.5,4.222a7.862,7.862,0,0,1-3.995-.908V30.41h2.374v2.542a3.994,3.994,0,0,0,1.62.231,2.072,2.072,0,0,0,2.115-2.238,2.478,2.478,0,0,0-.427-1.439,10.344,10.344,0,0,0-2.029-1.875c-1.08-.908-1.448-1.389-1.448-2.61V24.45H134.1c0,.994.032,1.389.581,1.879a21.15,21.15,0,0,1,2.034,1.843,4.426,4.426,0,0,1,1.3,2.792Z" transform="translate(-122.452 40.792)"/>
    <path id="Path_334" data-name="Path 334" class="cls-2" d="M206.213,30.964c0,3.178-2.56,4.222-4.5,4.222a7.862,7.862,0,0,1-3.995-.908V30.41h2.4v2.542a3.994,3.994,0,0,0,1.621.231,2.072,2.072,0,0,0,2.115-2.238,2.478,2.478,0,0,0-.427-1.439,10.344,10.344,0,0,0-2.029-1.875c-1.08-.908-1.448-1.389-1.448-2.61V24.45h2.374c0,.994.032,1.389.581,1.879a21.148,21.148,0,0,1,2.034,1.843,4.426,4.426,0,0,1,1.276,2.792Z" transform="translate(-159.694 40.792)"/>
    <path id="Path_335" data-name="Path 335" class="cls-2" d="M113.995,28.209a2.819,2.819,0,0,0,.454-1.843c-.2-1.335-1.475-2.338-3.758-2.27a3.967,3.967,0,0,0-1.961.617v1.943a3.532,3.532,0,0,1,1.816-.69,1.708,1.708,0,0,1,1.648.631.794.794,0,0,1,.127.454.844.844,0,0,1-.141.454l-.073.1a4,4,0,0,0-.454-.027h-.136c-1.507,0-4.176.944-4.176,3.7S110.009,35,111.516,35h.136c1.507,0,4.181-.958,4.181-3.718a3.3,3.3,0,0,0-1.212-2.651,4.5,4.5,0,0,0-.626-.422Zm-1.4,4.467h0l-.136.073h-.05l-.145.054h0a2.015,2.015,0,0,1-.64.1,2.047,2.047,0,0,1-.64-.1h0l-.145-.054h-.045l-.136-.073h0a1.648,1.648,0,0,1-.867-1.416,1.879,1.879,0,0,1,3.74,0A1.648,1.648,0,0,1,112.592,32.675Z" transform="translate(-110.34 40.987)"/>
    <path id="Path_336" data-name="Path 336" class="cls-2" d="M158.075,28.209a2.819,2.819,0,0,0,.454-1.843c-.2-1.335-1.475-2.338-3.758-2.27a3.967,3.967,0,0,0-1.961.617v1.943a3.532,3.532,0,0,1,1.816-.69,1.708,1.708,0,0,1,1.648.631.794.794,0,0,1,.127.454.844.844,0,0,1-.141.454l-.073.1a3.994,3.994,0,0,0-.454-.027H155.6c-1.507,0-4.176.944-4.176,3.7S154.089,35,155.6,35h.136c1.507,0,4.181-.958,4.181-3.718a3.3,3.3,0,0,0-1.212-2.651A4.5,4.5,0,0,0,158.075,28.209Zm-1.4,4.467h0l-.136.073h-.05l-.145.054h0a2.015,2.015,0,0,1-.64.1,2.047,2.047,0,0,1-.64-.1h0l-.145-.054h-.045l-.136-.073h0a1.648,1.648,0,0,1-.867-1.416,1.879,1.879,0,0,1,3.74,0,1.648,1.648,0,0,1-.935,1.416Z" transform="translate(-134.411 40.987)"/>
    <path id="Path_337" data-name="Path 337" class="cls-2" d="M226.415,27.877l-1.044,1.507a2.292,2.292,0,0,1,.813,1.752,1.787,1.787,0,0,1-1.943,1.993q-2,0-2-2.556V24.45H219.86v6.092q0,4.644,4.294,4.639c2.764,0,4.421-1.4,4.421-4.19a3.318,3.318,0,0,0-2.161-3.114Z" transform="translate(-171.784 40.792)"/>
    <path id="Path_338" data-name="Path 338" class="cls-2" d="M179.5,24.178l-.168-.041a3.273,3.273,0,0,0-.622-.068h-.477a3.459,3.459,0,0,0-2.27.853,3.3,3.3,0,0,0-2.27-.853,4.821,4.821,0,0,0-1.707.327v2.129a4.253,4.253,0,0,1,.577-.327,1.816,1.816,0,0,1,1.266-.25,1.28,1.28,0,0,1,.953,1.226v1.3h2.383v-1.3a1.287,1.287,0,1,1,2.574,0v3.178q0,2.556-2,2.556t-1.966-2.469v-.259h-2.374v.032q0,4.748,4.426,4.753,4.294,0,4.294-4.639V27.538A3.463,3.463,0,0,0,179.5,24.178Z" transform="translate(-145.643 41)"/>
    <path id="Path_339" data-name="Path 339" class="cls-2" d="M168.48,63.1v.036h0Z" transform="translate(-137.43 19.686)"/>
    <path id="Path_340" data-name="Path 340" class="cls-2" d="M178.67,63.1v.036A.145.145,0,0,0,178.67,63.1Z" transform="translate(-142.995 19.686)"/>
    <path id="Path_341" data-name="Path 341" class="cls-2" d="M127.057,61V59.376a3.518,3.518,0,0,0-.141-.994,2.474,2.474,0,0,0-.413-.817,1.734,1.734,0,0,0-2.724,0,2.474,2.474,0,0,0-.413.817,3.522,3.522,0,0,0-.136.994v1.929h0v.713c0,1.661.772,2.5,2.342,2.5a3.854,3.854,0,0,0,1.87-.545v.772a4.108,4.108,0,0,1-1.87.454,3.092,3.092,0,0,1-2.351-.808,3.509,3.509,0,0,1-.763-2.488V59.34a.1.1,0,0,1,0-.032,3.949,3.949,0,0,1,.186-1.139,3.1,3.1,0,0,1,.513-1.049,2.451,2.451,0,0,1,.908-.667,2.605,2.605,0,0,1,2.179,0,2.451,2.451,0,0,1,.867.672,3.1,3.1,0,0,1,.554,1.049,4.031,4.031,0,0,1,.186,1.171.141.141,0,0,1,0,.036V61Z" transform="translate(-112.298 23.446)"/>
    <path id="Path_342" data-name="Path 342" class="cls-2" d="M115.49,76Z" transform="translate(-108.494 12.642)"/>
    <path id="Path_343" data-name="Path 343" class="cls-2" d="M143.387,59.371v5.661h-.776V59.371a3.518,3.518,0,0,0-.141-.994,2.474,2.474,0,0,0-.413-.817,1.734,1.734,0,0,0-2.724,0,2.474,2.474,0,0,0-.427.822,3.518,3.518,0,0,0-.141.994v5.656H138V59.371a.145.145,0,0,1,0-.036,4.035,4.035,0,0,1,.186-1.171,3.1,3.1,0,0,1,.554-1.049,2.451,2.451,0,0,1,.867-.672,2.605,2.605,0,0,1,2.179,0,2.451,2.451,0,0,1,.867.672,3.1,3.1,0,0,1,.554,1.049,4.036,4.036,0,0,1,.186,1.171A.145.145,0,0,1,143.387,59.371Z" transform="translate(-120.784 23.452)"/>
    <path id="Path_344" data-name="Path 344" class="cls-2" d="M173.843,59.376v5.661h-.776V59.376a3.518,3.518,0,0,0-.141-.994,2.475,2.475,0,0,0-.413-.817,1.866,1.866,0,0,0-.635-.54,1.58,1.58,0,0,0-1.448,0,1.866,1.866,0,0,0-.649.517,2.474,2.474,0,0,0-.413.817,3.517,3.517,0,0,0-.141.994V59.34h0v5.7h-.776v-5.7h0a4.034,4.034,0,0,1,.186-1.171,3.1,3.1,0,0,1,.554-1.049,2.451,2.451,0,0,1,.872-.667,2.605,2.605,0,0,1,2.179,0,2.451,2.451,0,0,1,.867.672,3.1,3.1,0,0,1,.554,1.049,4.036,4.036,0,0,1,.186,1.171A.147.147,0,0,1,173.843,59.376Z" transform="translate(-137.414 23.446)"/>
    <path id="Path_345" data-name="Path 345" class="cls-2" d="M158.774,60.971a3.1,3.1,0,0,0-.563-1.049l-.032-.036a2.433,2.433,0,0,0-.835-.636,2.5,2.5,0,0,0-3.177.717V58.384c0-.985.409-1.475,1.158-1.475a3.213,3.213,0,0,1,.486.041l.263.054a4.916,4.916,0,0,0,1.089.123h.145a4.276,4.276,0,0,0,1.167-.245l-.159-.672c-.073.027-.345.109-.513.154a3.454,3.454,0,0,1-.572.077,3.368,3.368,0,0,1-.79-.064l-.127-.023-.227-.05-.127-.027a3.927,3.927,0,0,0-.654-.068,2.193,2.193,0,0,0-.831.15,1.625,1.625,0,0,0-.6.431,1.952,1.952,0,0,0-.363.676,2.955,2.955,0,0,0-.113.876V62.1a3.963,3.963,0,0,0,.186,1.126,3.1,3.1,0,0,0,.572,1.058l.032.032a2.415,2.415,0,0,0,.844.622,2.914,2.914,0,0,0,1.176.241,2.782,2.782,0,0,0,1.148-.241,2.433,2.433,0,0,0,.853-.654h0a3.1,3.1,0,0,0,.554-1.049,3.514,3.514,0,0,0,0-2.27Zm-.726,2.038a2.473,2.473,0,0,1-.413.817,1.866,1.866,0,0,1-.649.517,1.943,1.943,0,0,1-.785.177,2.079,2.079,0,0,1-.813-.177,1.865,1.865,0,0,1-.645-.513,2.474,2.474,0,0,1-.413-.817,3.105,3.105,0,0,1,0-1.816,2.475,2.475,0,0,1,.413-.817,1.866,1.866,0,0,1,.649-.517,2.079,2.079,0,0,1,.813-.177,1.943,1.943,0,0,1,.785.177,1.866,1.866,0,0,1,.649.517,2.474,2.474,0,0,1,.413.817,3.105,3.105,0,0,1,0,1.816Z" transform="translate(-129.194 23.449)"/>
    <path id="Path_346" data-name="Path 346" class="cls-2" d="M202.644,64.566a2.674,2.674,0,0,1-2.17.781,3.332,3.332,0,0,1-.908-.163,2.614,2.614,0,0,1-.858-.508,2.31,2.31,0,0,1-.558-.79,2.41,2.41,0,0,1-.2-.971h.84a1.6,1.6,0,0,0,.517,1.271,1.716,1.716,0,0,0,1.049.422,2.106,2.106,0,0,0,1.7-.513,1.679,1.679,0,0,0,.4-1.094v-.49a2.723,2.723,0,0,0-.586-1.87c-.222-.254-1.3-1.521-1.679-1.929a2.462,2.462,0,0,1-.908-2.02V56.55h.835v.168a1.749,1.749,0,0,0,.654,1.448c.395.422,1.48,1.7,1.7,1.952a3.486,3.486,0,0,1,.84,2.392v.454A2.36,2.36,0,0,1,202.644,64.566Z" transform="translate(-153.523 23.263)"/>
    <path id="Path_347" data-name="Path 347" class="cls-2" d="M188.573,62.837v-.3a2.05,2.05,0,0,0-1.144-2.074,2.229,2.229,0,0,0-.794-.213v-.032a2.487,2.487,0,0,0,.64-.309,1.915,1.915,0,0,0,.454-.454,2.024,2.024,0,0,0,.3-.595,1.88,1.88,0,0,0,.1-.626,1.956,1.956,0,0,0-.163-.813,1.721,1.721,0,0,0-.454-.631,2.175,2.175,0,0,0-.735-.409A2.846,2.846,0,0,0,186,56.25v.758c.867.113,1.3.581,1.3,1.307a1.721,1.721,0,0,1-.136.695,1.489,1.489,0,0,1-.39.527,1.748,1.748,0,0,1-.613.331,2.569,2.569,0,0,1-.8.118h-.576v.726h.672c1.493,0,2.247.576,2.27,1.661v.372a1.607,1.607,0,0,1-.513,1.276,2.129,2.129,0,0,1-1.362.454h-.213a1.725,1.725,0,0,1-1.049-.422,1.607,1.607,0,0,1-.517-1.271h-.84a2.41,2.41,0,0,0,.2.971,2.31,2.31,0,0,0,.558.79,2.61,2.61,0,0,0,.858.508,3.359,3.359,0,0,0,.908.163,2.678,2.678,0,0,0,2.17-.781A2.361,2.361,0,0,0,188.573,62.837Z" transform="translate(-145.485 23.427)"/>
    <path id="Path_348" data-name="Path 348" class="cls-2" d="M112.913,62.837v-.3a2.05,2.05,0,0,0-1.144-2.074,2.229,2.229,0,0,0-.794-.213v-.032a2.487,2.487,0,0,0,.64-.309,1.916,1.916,0,0,0,.454-.454,2.024,2.024,0,0,0,.3-.595,1.879,1.879,0,0,0,.1-.626,1.956,1.956,0,0,0-.163-.813,1.72,1.72,0,0,0-.454-.631,2.174,2.174,0,0,0-.735-.409,2.846,2.846,0,0,0-.776-.136v.758c.867.113,1.3.581,1.3,1.307a1.72,1.72,0,0,1-.136.695,1.489,1.489,0,0,1-.39.527,1.748,1.748,0,0,1-.613.331,2.569,2.569,0,0,1-.8.118h-.572v.726h.672c1.493,0,2.247.576,2.27,1.661v.372a1.607,1.607,0,0,1-.517,1.28,2.129,2.129,0,0,1-1.362.454h-.213a1.725,1.725,0,0,1-1.049-.422,1.607,1.607,0,0,1-.517-1.271h-.84a2.411,2.411,0,0,0,.2.971,2.311,2.311,0,0,0,.558.79,2.61,2.61,0,0,0,.858.508,3.359,3.359,0,0,0,.908.163,2.678,2.678,0,0,0,2.17-.781A2.36,2.36,0,0,0,112.913,62.837Z" transform="translate(-104.169 23.427)"/>
  </g>
</svg>
