<svg xmlns="http://www.w3.org/2000/svg" width="140px" height="58px" viewBox="-15241 -9616 137.891 57.3">
  <defs>
    <style>
      .cls-1 {
        fill: #fbad1d;
      }

      .cls-2 {
        fill: #40a750;
      }

      .cls-3 {
        fill: #264c59;
      }
    </style>
  </defs>
  <g id="Layer_1" data-name="Layer 1" transform="translate(-15241 -9616)">
    <path id="Path_361" data-name="Path 361" class="cls-1" d="M59.238,60.745a9.7,9.7,0,0,1-4.614,7.908,9.805,9.805,0,0,1-4.908,1.482h-.577a16.957,16.957,0,0,1-3.668-.467,12.776,12.776,0,0,0,2.838-.577c1.73-.577,1.938-1.592,1.938-1.592a6.766,6.766,0,0,1-2.457-8.484,6.345,6.345,0,0,1,6.541-4.037A5.358,5.358,0,0,1,59.238,60.745Z" transform="translate(-19.238 -23.259)"/>
    <path id="Path_362" data-name="Path 362" class="cls-2" d="M48.508,49.3a28.072,28.072,0,0,1-19.864,8.006,27.108,27.108,0,0,1-5.768-.577A28.654,28.654,0,1,1,47.626,7.2a24.421,24.421,0,0,0-35.9,24.225.254.254,0,0,1,0,.046,18.549,18.549,0,0,0,18.168,17.1h.64A11.466,11.466,0,0,0,41.673,37.112,7.194,7.194,0,0,0,34.59,30.03,6.793,6.793,0,0,0,30.3,31.27l.415-.848a11.36,11.36,0,0,1,10.67-6.027c6.691.069,11.5,5.226,12.078,11.587A17.491,17.491,0,0,1,48.508,49.3Z" transform="translate(0.011 -0.006)"/>
    <path id="Path_363" data-name="Path 363" class="cls-1" d="M56.453,12.948a22.448,22.448,0,0,0-4.147-1.73h-.04a20.764,20.764,0,0,0-6.541-.969A22.771,22.771,0,0,0,23,33a20.389,20.389,0,0,1,3.351-5.543,10.506,10.506,0,0,1,4.389-3.115s2.532,4.949,6.829,4.718a20.528,20.528,0,0,0,16.236-9.724,32.929,32.929,0,0,0,2.647-6.385Z" transform="translate(-9.728 -4.34)"/>
    <path id="Path_364" data-name="Path 364" class="cls-3" d="M140.311,32.727c0,4.037-3.253,5.364-5.716,5.364a9.99,9.99,0,0,1-5.076-1.154V32.023h3.017v3.23a5.076,5.076,0,0,0,2.059.294,2.633,2.633,0,0,0,2.688-2.844,3.149,3.149,0,0,0-.542-1.828,13.144,13.144,0,0,0-2.578-2.382c-1.373-1.154-1.84-1.765-1.84-3.316V24.45h3.017c0,1.263.04,1.765.738,2.388a26.875,26.875,0,0,1,2.584,2.342A5.623,5.623,0,0,1,140.311,32.727Z" transform="translate(-54.81 -10.352)"/>
    <path id="Path_365" data-name="Path 365" class="cls-3" d="M208.511,32.727c0,4.037-3.253,5.364-5.716,5.364a9.99,9.99,0,0,1-5.076-1.154V32.023h3.045v3.23a5.076,5.076,0,0,0,2.059.294,2.633,2.633,0,0,0,2.688-2.844,3.149,3.149,0,0,0-.542-1.828,13.144,13.144,0,0,0-2.578-2.382c-1.373-1.154-1.84-1.765-1.84-3.316V24.45h3.017c0,1.263.04,1.765.738,2.388a26.875,26.875,0,0,1,2.584,2.342A5.623,5.623,0,0,1,208.511,32.727Z" transform="translate(-83.674 -10.352)"/>
    <path id="Path_366" data-name="Path 366" class="cls-3" d="M115.8,29.323a3.582,3.582,0,0,0,.577-2.342c-.26-1.7-1.875-2.97-4.776-2.884a5.041,5.041,0,0,0-2.492.784V27.35a4.487,4.487,0,0,1,2.307-.877,2.17,2.17,0,0,1,2.094.8,1.009,1.009,0,0,1,.161.577,1.073,1.073,0,0,1-.179.577l-.092.127a5.076,5.076,0,0,0-.577-.035h-.173c-1.915,0-5.306,1.2-5.306,4.706s3.391,4.724,5.306,4.724h.173c1.915,0,5.312-1.217,5.312-4.724a4.2,4.2,0,0,0-1.54-3.368,5.721,5.721,0,0,0-.8-.536ZM114.013,35h0l-.173.092h-.063l-.185.069h0a2.561,2.561,0,0,1-.813.133,2.6,2.6,0,0,1-.813-.133h0l-.185-.069h-.058L111.55,35h0a2.094,2.094,0,0,1-1.1-1.8,2.388,2.388,0,0,1,4.753,0A2.094,2.094,0,0,1,114.013,35Z" transform="translate(-45.423 -10.2)"/>
    <path id="Path_367" data-name="Path 367" class="cls-3" d="M159.876,29.323a3.582,3.582,0,0,0,.577-2.342c-.26-1.7-1.875-2.97-4.776-2.884a5.041,5.041,0,0,0-2.492.784V27.35a4.487,4.487,0,0,1,2.307-.877,2.17,2.17,0,0,1,2.094.8,1.009,1.009,0,0,1,.162.577,1.073,1.073,0,0,1-.179.577l-.092.127a5.076,5.076,0,0,0-.577-.035h-.173c-1.915,0-5.306,1.2-5.306,4.706s3.391,4.724,5.306,4.724h.173c1.915,0,5.312-1.217,5.312-4.724a4.2,4.2,0,0,0-1.54-3.368,5.721,5.721,0,0,0-.8-.536ZM158.1,35h0l-.173.092h-.063l-.185.069h0a2.561,2.561,0,0,1-.813.133,2.6,2.6,0,0,1-.813-.133h0l-.185-.069h-.058L155.636,35h0a2.094,2.094,0,0,1-1.1-1.8,2.388,2.388,0,0,1,4.753,0A2.094,2.094,0,0,1,158.1,35Z" transform="translate(-64.078 -10.2)"/>
    <path id="Path_368" data-name="Path 368" class="cls-3" d="M228.189,28.8l-1.327,1.915a2.913,2.913,0,0,1,1.032,2.226,2.271,2.271,0,0,1-2.469,2.532q-2.544,0-2.538-3.247V24.45H219.86v7.74q0,5.9,5.456,5.895c3.513,0,5.618-1.776,5.618-5.324a4.216,4.216,0,0,0-2.745-3.957Z" transform="translate(-93.044 -10.352)"/>
    <path id="Path_369" data-name="Path 369" class="cls-3" d="M181.536,24.208l-.213-.052a4.158,4.158,0,0,0-.79-.087h-.606a4.4,4.4,0,0,0-2.884,1.084,4.2,4.2,0,0,0-2.884-1.084,6.125,6.125,0,0,0-2.169.415V27.19a5.405,5.405,0,0,1,.732-.415,2.307,2.307,0,0,1,1.609-.317,1.626,1.626,0,0,1,1.211,1.557V29.67h3.028V28.015a1.635,1.635,0,1,1,3.27,0v4.037q0,3.247-2.538,3.247t-2.5-3.138v-.329H173.79v.04q0,6.033,5.624,6.039,5.456,0,5.456-5.895V28.476A4.4,4.4,0,0,0,181.536,24.208Z" transform="translate(-72.784 -10.19)"/>
    <path id="Path_370" data-name="Path 370" class="cls-3" d="M168.48,63.1v.046h0Z" transform="translate(-71.298 -26.709)"/>
    <path id="Path_371" data-name="Path 371" class="cls-3" d="M178.67,63.1v.046A.184.184,0,0,0,178.67,63.1Z" transform="translate(-75.611 -26.709)"/>
    <path id="Path_372" data-name="Path 372" class="cls-3" d="M128.3,62.291V60.232a4.47,4.47,0,0,0-.179-1.263,3.144,3.144,0,0,0-.525-1.038,2.2,2.2,0,0,0-3.461,0,3.143,3.143,0,0,0-.525,1.038,4.475,4.475,0,0,0-.173,1.263v2.451h0v.906c0,2.111.981,3.172,2.976,3.172a4.9,4.9,0,0,0,2.376-.692v.981a5.22,5.22,0,0,1-2.376.577,3.929,3.929,0,0,1-2.988-1.027,4.459,4.459,0,0,1-.969-3.161V60.186a.127.127,0,0,1,0-.04A5.018,5.018,0,0,1,122.7,58.7a3.94,3.94,0,0,1,.652-1.332,3.115,3.115,0,0,1,1.154-.848,3.311,3.311,0,0,1,2.769,0,3.115,3.115,0,0,1,1.1.854,3.939,3.939,0,0,1,.7,1.332,5.122,5.122,0,0,1,.236,1.488.178.178,0,0,1,0,.046V62.3Z" transform="translate(-51.82 -23.795)"/>
    <path id="Path_373" data-name="Path 373" class="cls-3" d="M115.49,76Z" transform="translate(-48.872 -32.169)"/>
    <path id="Path_374" data-name="Path 374" class="cls-3" d="M144.845,60.228V67.42h-.986V60.228a4.47,4.47,0,0,0-.179-1.263,3.144,3.144,0,0,0-.525-1.038,2.2,2.2,0,0,0-3.461,0,3.144,3.144,0,0,0-.542,1.044,4.47,4.47,0,0,0-.179,1.263V67.42H138V60.228a.185.185,0,0,1,0-.046,5.128,5.128,0,0,1,.236-1.488,3.939,3.939,0,0,1,.7-1.332,3.115,3.115,0,0,1,1.1-.854,3.311,3.311,0,0,1,2.769,0,3.115,3.115,0,0,1,1.1.854,3.939,3.939,0,0,1,.7,1.332,5.128,5.128,0,0,1,.236,1.488A.185.185,0,0,1,144.845,60.228Z" transform="translate(-58.398 -23.791)"/>
    <path id="Path_375" data-name="Path 375" class="cls-3" d="M175.3,60.232v7.192h-.986V60.232a4.47,4.47,0,0,0-.179-1.263,3.144,3.144,0,0,0-.525-1.038,2.371,2.371,0,0,0-.807-.686,2.007,2.007,0,0,0-1.84,0,2.37,2.37,0,0,0-.825.658,3.143,3.143,0,0,0-.525,1.038,4.47,4.47,0,0,0-.179,1.263v-.017h0v7.239h-.986V60.186h0a5.127,5.127,0,0,1,.236-1.488,3.939,3.939,0,0,1,.7-1.332,3.114,3.114,0,0,1,1.107-.848,3.311,3.311,0,0,1,2.769,0,3.115,3.115,0,0,1,1.1.854,3.939,3.939,0,0,1,.7,1.332,5.128,5.128,0,0,1,.236,1.488A.184.184,0,0,1,175.3,60.232Z" transform="translate(-71.286 -23.795)"/>
    <path id="Path_376" data-name="Path 376" class="cls-3" d="M160.228,62.26a3.939,3.939,0,0,0-.715-1.332l-.04-.046a3.091,3.091,0,0,0-1.061-.807,3.178,3.178,0,0,0-4.037.911V58.973c0-1.252.519-1.875,1.471-1.875a4.083,4.083,0,0,1,.617.052l.335.069a6.246,6.246,0,0,0,1.384.156h.185a5.433,5.433,0,0,0,1.482-.311l-.2-.854c-.092.035-.438.138-.652.2a4.389,4.389,0,0,1-.727.1,4.28,4.28,0,0,1-1-.081l-.161-.029-.288-.063-.161-.035a4.989,4.989,0,0,0-.831-.087,2.786,2.786,0,0,0-1.055.19,2.065,2.065,0,0,0-.761.548,2.48,2.48,0,0,0-.461.859,3.754,3.754,0,0,0-.144,1.113V63.7a5.035,5.035,0,0,0,.236,1.43,3.939,3.939,0,0,0,.727,1.344l.04.04a3.068,3.068,0,0,0,1.073.79,3.7,3.7,0,0,0,1.494.306,3.536,3.536,0,0,0,1.459-.306,3.091,3.091,0,0,0,1.084-.831h0a3.94,3.94,0,0,0,.7-1.332,4.464,4.464,0,0,0,0-2.884Zm-.923,2.59a3.144,3.144,0,0,1-.525,1.038,2.371,2.371,0,0,1-.825.658,2.469,2.469,0,0,1-1,.225,2.642,2.642,0,0,1-1.032-.225,2.371,2.371,0,0,1-.819-.652,3.143,3.143,0,0,1-.525-1.038,3.945,3.945,0,0,1,0-2.307,3.144,3.144,0,0,1,.525-1.038,2.371,2.371,0,0,1,.825-.658,2.642,2.642,0,0,1,1.032-.225,2.468,2.468,0,0,1,1,.225,2.371,2.371,0,0,1,.825.658,3.144,3.144,0,0,1,.525,1.038,3.945,3.945,0,0,1,0,2.307Z" transform="translate(-64.916 -23.793)"/>
    <path id="Path_377" data-name="Path 377" class="cls-3" d="M203.914,66.736a3.4,3.4,0,0,1-2.757.992A4.234,4.234,0,0,1,200,67.52a3.322,3.322,0,0,1-1.09-.646,2.936,2.936,0,0,1-.709-1,3.063,3.063,0,0,1-.254-1.234h1.067a2.036,2.036,0,0,0,.658,1.615,2.18,2.18,0,0,0,1.332.536,2.676,2.676,0,0,0,2.163-.652,2.134,2.134,0,0,0,.508-1.39v-.623a3.461,3.461,0,0,0-.744-2.376c-.283-.323-1.65-1.932-2.134-2.451-1.154-1.246-1.2-2-1.154-2.567V56.55h1.061v.213a2.222,2.222,0,0,0,.831,1.84c.5.536,1.88,2.157,2.163,2.48a4.43,4.43,0,0,1,1.067,3.04V64.7A3,3,0,0,1,203.914,66.736Z" transform="translate(-83.771 -23.937)"/>
    <path id="Path_378" data-name="Path 378" class="cls-3" d="M190.019,64.619v-.375a2.6,2.6,0,0,0-1.453-2.636,2.832,2.832,0,0,0-1.009-.271V61.3a3.161,3.161,0,0,0,.813-.392,2.434,2.434,0,0,0,.577-.577,2.573,2.573,0,0,0,.381-.756,2.388,2.388,0,0,0,.127-.8,2.486,2.486,0,0,0-.208-1.032,2.186,2.186,0,0,0-.577-.8,2.763,2.763,0,0,0-.934-.519,3.617,3.617,0,0,0-.986-.173v.963c1.1.144,1.65.738,1.65,1.661a2.186,2.186,0,0,1-.173.882,1.892,1.892,0,0,1-.5.669,2.221,2.221,0,0,1-.779.421,3.264,3.264,0,0,1-1.015.15H185.2v.923h.854c1.9,0,2.855.732,2.884,2.111V64.5a2.042,2.042,0,0,1-.652,1.621,2.705,2.705,0,0,1-1.73.577h-.271a2.192,2.192,0,0,1-1.332-.536,2.042,2.042,0,0,1-.658-1.615H183.23a3.062,3.062,0,0,0,.254,1.234,2.936,2.936,0,0,0,.709,1,3.316,3.316,0,0,0,1.09.646,4.268,4.268,0,0,0,1.154.208,3.4,3.4,0,0,0,2.757-.992A3,3,0,0,0,190.019,64.619Z" transform="translate(-77.541 -23.81)"/>
    <path id="Path_379" data-name="Path 379" class="cls-3" d="M114.359,64.619v-.375a2.6,2.6,0,0,0-1.453-2.636,2.832,2.832,0,0,0-1.009-.271V61.3a3.16,3.16,0,0,0,.813-.392,2.434,2.434,0,0,0,.577-.577,2.572,2.572,0,0,0,.381-.756,2.388,2.388,0,0,0,.127-.8,2.486,2.486,0,0,0-.208-1.032,2.186,2.186,0,0,0-.577-.8,2.763,2.763,0,0,0-.934-.519,3.616,3.616,0,0,0-.986-.173v.963c1.1.144,1.65.738,1.65,1.661a2.186,2.186,0,0,1-.173.882,1.892,1.892,0,0,1-.5.669,2.221,2.221,0,0,1-.779.421,3.264,3.264,0,0,1-1.015.15h-.727v.923h.854c1.9,0,2.855.733,2.884,2.111V64.5a2.042,2.042,0,0,1-.658,1.627,2.705,2.705,0,0,1-1.73.577h-.271a2.192,2.192,0,0,1-1.332-.536,2.042,2.042,0,0,1-.658-1.615H107.57a3.063,3.063,0,0,0,.254,1.234,2.936,2.936,0,0,0,.709,1,3.317,3.317,0,0,0,1.09.646,4.268,4.268,0,0,0,1.154.208,3.4,3.4,0,0,0,2.757-.992A3,3,0,0,0,114.359,64.619Z" transform="translate(-45.52 -23.81)"/>
  </g>
</svg>
