<svg xmlns="http://www.w3.org/2000/svg" width="36px" height="48px" viewBox="-16937 -8537 36.363 48">
  <defs>
    <style>
      .cls-1 {
        fill: #fff;
      }
    </style>
  </defs>
  <g id="doctor" transform="translate(-16977.002 -8537)">
    <path id="XMLID_467_" class="cls-1" d="M109.454,23.273a9.454,9.454,0,0,0,6.529-16.292c.009-.144.016-.289.016-.435a6.545,6.545,0,0,0-13.091,0c0,.146.007.291.016.435a9.454,9.454,0,0,0,6.529,16.292Zm0-4.364a5.086,5.086,0,0,1-4.445-7.565,6.529,6.529,0,0,0,8.891,0,5.086,5.086,0,0,1-4.446,7.566Zm0-14.546a2.182,2.182,0,1,1-2.182,2.182A2.184,2.184,0,0,1,109.454,4.364Z" transform="translate(-51.272)"/>
    <path id="XMLID_472_" class="cls-1" d="M66.355,191.944a2.178,2.178,0,0,0-.274-.136,18.165,18.165,0,0,0-15.8,0,2.156,2.156,0,0,0-.272.135A18.2,18.2,0,0,0,40,208.183a2.182,2.182,0,0,0,2.182,2.182h32a2.182,2.182,0,0,0,2.182-2.182A18.2,18.2,0,0,0,66.355,191.944ZM61.622,194.8l-3.439,4.146L54.743,194.8a13.757,13.757,0,0,1,6.879,0ZM50.6,196.638l5.4,6.514V206H44.537A13.844,13.844,0,0,1,50.6,196.638ZM60.364,206v-2.849l5.4-6.514A13.844,13.844,0,0,1,71.829,206Z" transform="translate(0 -162.364)"/>
  </g>
</svg>
