<svg xmlns="http://www.w3.org/2000/svg" width="48px" height="48px" viewBox="-16562 -8537 47.973 48">
  <defs>
    <style>
      .cls-1 {
        fill: #fff;
      }
    </style>
  </defs>
  <path id="asterisk" class="cls-1" d="M46.976,27.981,40.081,24l6.895-3.981a2.182,2.182,0,0,0,.8-2.98L41.956,6.961a2.182,2.182,0,0,0-2.98-.8l-6.895,3.981V2.182A2.182,2.182,0,0,0,29.9,0H18.263a2.182,2.182,0,0,0-2.182,2.182v7.962L9.186,6.163a2.182,2.182,0,0,0-2.98.8L.388,17.039a2.182,2.182,0,0,0,.8,2.98L8.081,24,1.186,27.981a2.182,2.182,0,0,0-.8,2.98L6.206,41.039a2.182,2.182,0,0,0,2.981.8l6.895-3.981v7.962A2.182,2.182,0,0,0,18.263,48H29.9a2.182,2.182,0,0,0,2.182-2.182V37.857l6.895,3.981a2.182,2.182,0,0,0,2.98-.8l5.818-10.077a2.182,2.182,0,0,0-.8-2.981Zm-7.708,8.986L30.99,32.188a2.182,2.182,0,0,0-3.273,1.889v9.559H20.445V34.077a2.182,2.182,0,0,0-3.273-1.889L8.894,36.967l-3.636-6.3,8.278-4.779a2.182,2.182,0,0,0,0-3.779l-8.278-4.78,3.636-6.3,8.278,4.779a2.182,2.182,0,0,0,3.273-1.889V4.364h7.273v9.559a2.182,2.182,0,0,0,3.273,1.889l8.278-4.779,3.636,6.3-8.278,4.779a2.182,2.182,0,0,0,0,3.779L42.9,30.669Z" transform="translate(-16562.096 -8537)"/>
</svg>
