<svg xmlns="http://www.w3.org/2000/svg" width="54px" height="48px" viewBox="-17320 -8536.87 54.332 48">
  <defs>
    <style>
      .cls-1 {
        fill: #fff;
      }
    </style>
  </defs>
  <g id="first-aid-kit" transform="translate(-17320 -8554.177)">
    <path id="Path_349" data-name="Path 349" class="cls-1" d="M44.115,26.813a1.833,1.833,0,0,0-3.611-.007H36.918v-4.3a5.208,5.208,0,0,0-5.2-5.2h-9.1a5.208,5.208,0,0,0-5.2,5.2v4.3H13.828a1.833,1.833,0,0,0-3.611.007A10.5,10.5,0,0,0,0,37.3V54.814A10.5,10.5,0,0,0,10.493,65.307H43.839A10.505,10.505,0,0,0,54.333,54.814V37.3A10.5,10.5,0,0,0,44.115,26.813Zm-23.03-4.3a1.533,1.533,0,0,1,1.531-1.531h9.1a1.533,1.533,0,0,1,1.531,1.531v4.3H21.086ZM50.661,54.814a6.83,6.83,0,0,1-6.822,6.822H10.493a6.83,6.83,0,0,1-6.822-6.822V37.3a6.83,6.83,0,0,1,6.822-6.822H43.839A6.83,6.83,0,0,1,50.662,37.3V54.814Z"/>
    <path id="Path_350" data-name="Path 350" class="cls-1" d="M99.721,114.761a10.922,10.922,0,1,0,10.922,10.922A10.934,10.934,0,0,0,99.721,114.761Zm0,18.172a7.25,7.25,0,1,1,7.25-7.25A7.259,7.259,0,0,1,99.721,132.933Z" transform="translate(-72.554 -79.626)"/>
    <path id="Path_351" data-name="Path 351" class="cls-1" d="M129.8,150.9H128.61v-1.193a1.836,1.836,0,0,0-3.671,0V150.9h-1.193a1.836,1.836,0,0,0,0,3.671h1.193v1.193a1.836,1.836,0,0,0,3.671,0v-1.193H129.8a1.836,1.836,0,0,0,0-3.671Z" transform="translate(-99.608 -106.681)"/>
  </g>
</svg>
